<?xml version="1.0" encoding="UTF-8" standalone="no"?>
<svg width="1440px" height="600px" viewBox="0 0 1440 600" version="1.1" xmlns="http://www.w3.org/2000/svg" xmlns:xlink="http://www.w3.org/1999/xlink" xmlns:sketch="http://www.bohemiancoding.com/sketch/ns">
    <!-- Generator: Sketch 3.5.2 (25235) - http://www.bohemiancoding.com/sketch -->
    <title>Desktop HD</title>
    <desc>Created with Sketch.</desc>
    <defs></defs>
    <g id="Page-1" stroke="none" stroke-width="1" fill="none" fill-rule="evenodd" sketch:type="MSPage">
        <g id="Desktop-HD" sketch:type="MSArtboardGroup">
            <g id="glasses" sketch:type="MSLayerGroup" transform="translate(120.000000, 116.000000)" stroke="#6b808b">
                <rect id="cont" opacity="0" sketch:type="MSShapeGroup" x="0" y="0" width="40" height="40"></rect>
                <path d="M10.4761905,37.4603175 C14.5087458,37.4603175 17.7777778,34.21159 17.7777778,30.2040816 C17.7777778,28.2003274 17.7777778,28.762261 17.7777778,28.762261 C17.7777778,26.5529252 15.9871419,24.7619048 13.7873961,24.7619048 L7.16498481,24.7619048 C4.96115789,24.7619048 3.17460317,26.5438966 3.17460317,28.7569944 C3.17460317,28.7569944 3.17460317,27.6998242 3.17460317,30.2040816 C3.17460317,34.21159 6.44363516,37.4603175 10.4761905,37.4603175 Z" id="Oval-39" stroke-width="2" stroke-linecap="round" stroke-linejoin="round" sketch:type="MSShapeGroup"></path>
                <path d="M30.1587302,37.4603175 C34.1912855,37.4603175 37.4603175,34.21159 37.4603175,30.2040816 C37.4603175,28.2003274 37.4603175,28.762261 37.4603175,28.762261 C37.4603175,26.5529252 35.6696816,24.7619048 33.4699358,24.7619048 L26.8475245,24.7619048 C24.6436976,24.7619048 22.8571429,26.5438966 22.8571429,28.7569944 C22.8571429,28.7569944 22.8571429,27.6998242 22.8571429,30.2040816 C22.8571429,34.21159 26.1261748,37.4603175 30.1587302,37.4603175 Z" id="Oval-39-Copy-2" stroke-width="2" stroke-linecap="round" stroke-linejoin="round" sketch:type="MSShapeGroup"></path>
                <path d="M22.8571429,29.8412698 C22.8571429,28.0879849 21.5779564,26.6666667 20,26.6666667 C18.4220436,26.6666667 17.1428571,28.0879849 17.1428571,29.8412698" id="Oval-41" stroke-width="2" stroke-linecap="round" stroke-linejoin="round" sketch:type="MSShapeGroup"></path>
                <path d="M9.52380952,27.9365079 L7.97303899,11.0486168 C7.81310885,9.30697761 6.28154517,7.61185608 4.57651786,7.26737097 L3.17460317,6.98412698" id="Path-144-Copy" stroke-width="2" stroke-linecap="round" stroke-linejoin="round" sketch:type="MSShapeGroup" transform="translate(6.349206, 17.460317) scale(-1, 1) translate(-6.349206, -17.460317) "></path>
                <path d="M37.4603175,27.9365079 L35.9095469,11.0486168 C35.7496168,9.30697761 34.2180531,7.61185608 32.5130258,7.26737097 L31.1111111,6.98412698" id="Path-144-Copy-2" stroke-width="2" stroke-linecap="round" stroke-linejoin="round" sketch:type="MSShapeGroup"></path>
            </g>
            <g id="pen" sketch:type="MSLayerGroup" transform="translate(1340.000000, 136.000000)">
                <rect id="cont" opacity="0" fill="#181818" sketch:type="MSShapeGroup" x="0" y="0" width="40" height="40"></rect>
                <path d="M13.8271605,26.1728395 L13.8271605,21.6144349 L31.5646601,3.87693536 C32.3421663,3.09942913 33.6062863,3.10296243 34.38978,3.88645614 L36.1135439,5.61022002 C36.8963083,6.39298443 36.8938658,7.66453872 36.1230646,8.43533992 L18.3855651,26.1728395 L13.8271605,26.1728395 Z" id="Path-142" stroke="#6b808b" stroke-width="2" stroke-linecap="round" stroke-linejoin="round" sketch:type="MSShapeGroup"></path>
                <path d="M29.1358025,6.41975309 L33.5802469,10.8641975" id="Path-140" stroke="#6b808b" stroke-width="2" stroke-linecap="round" stroke-linejoin="round" sketch:type="MSShapeGroup"></path>
                <path d="M8.83690708,37.037037 L27.0305393,37.037037 L34.3079922,37.037037 C35.815202,37.037037 37.037037,35.8210203 37.037037,34.3209877 C37.037037,32.820955 35.815202,31.6049383 34.3079922,31.6049383 L5.19818064,31.6049383 C3.69097079,31.6049383 2.4691358,30.3889215 2.4691358,28.8888889 C2.4691358,27.3888562 3.69097079,26.1728395 5.19818064,26.1728395 L9.74658869,26.1728395" id="Path" stroke="#6b808b" stroke-width="2" stroke-linecap="round" stroke-linejoin="round" sketch:type="MSShapeGroup"></path>
            </g>
            <g id="lightbulb" sketch:type="MSLayerGroup" transform="translate(160.000000, 219.000000)">
                <rect id="cont" opacity="0" fill="#181818" sketch:type="MSShapeGroup" x="0" y="0" width="40" height="40"></rect>
                <path d="M25.4325956,25.4167452 L25.4325956,30.1028997 C25.4325956,31.2128685 24.5434514,32.1126761 23.4397521,32.1126761 L16.5602479,32.1126761 C15.4596309,32.1126761 14.5674044,31.2221838 14.5674044,30.1028997 L14.5674044,25.4167452 C10.2848036,23.3690064 7.32394366,18.9753696 7.32394366,13.8856669 C7.32394366,6.83911753 12.9992074,1.12676056 20,1.12676056 C27.0007926,1.12676056 32.6760563,6.83911753 32.6760563,13.8856669 C32.6760563,18.9753696 29.7151964,23.3690064 25.4325956,25.4167452 Z" id="Rectangle-104" stroke="#6b808b" stroke-width="2" stroke-linecap="round" stroke-linejoin="round" sketch:type="MSShapeGroup"></path>
                <path d="M19.7183099,4.50704225 C14.7399685,4.50704225 10.7042254,8.54278535 10.7042254,13.5211268" id="Oval-42" stroke="#6b808b" stroke-width="2" stroke-linecap="round" stroke-linejoin="round" sketch:type="MSShapeGroup"></path>
                <rect id="Rectangle-105-Copy" stroke="#6b808b" stroke-width="2" stroke-linecap="round" stroke-linejoin="round" sketch:type="MSShapeGroup" x="14.6478873" y="31.5492958" width="10.7042254" height="3.38028169" rx="2"></rect>
                <path d="M17.4647887,36.6197183 C17.4647887,38.17545 18.7259585,39.4366197 20.2816901,39.4366197 L20.2816901,39.4366197 C21.8374218,39.4366197 23.0985915,38.17545 23.0985915,36.6197183" id="Oval-42" stroke="#6b808b" stroke-width="2" stroke-linecap="round" stroke-linejoin="round" sketch:type="MSShapeGroup"></path>
            </g>
            <g id="lamp" sketch:type="MSLayerGroup" transform="translate(1240.000000, 96.000000)">
                <rect id="cont" opacity="0" fill="#181818" sketch:type="MSShapeGroup" x="0" y="0" width="40" height="40"></rect>
                <rect id="Rectangle-35-Copy" stroke="#6b808b" stroke-width="2" sketch:type="MSShapeGroup" x="7.35632184" y="33.5632184" width="21.6091954" height="3.67816092" rx="23"></rect>
                <path d="M18.3908046,10.1149425 L8.27586207,20.0353669 M8.27586207,23.642794 L18.3908046,33.5632184" id="Path-26" stroke="#6b808b" stroke-width="2" sketch:type="MSShapeGroup"></path>
                <path d="M25.8740789,8.00282916 C26.840745,7.65275877 27.8836614,7.46188746 28.9711568,7.46188746 C31.482674,7.46188746 33.7564261,8.47991162 35.4022989,10.125834 L22.5400147,22.9885057 C20.894142,21.3425834 19.8761485,19.0687628 19.8761485,16.5571699 C19.8761485,15.4696417 20.067014,14.4266938 20.4170739,13.4599986 L15.8320775,8.87486403 C15.0517356,8.09449861 15.0558113,6.82520048 15.8386619,6.04232631 L18.4566301,3.42427915 C19.2406085,2.64027718 20.5098689,2.63845754 21.2890825,3.41769457 L25.8740789,8.00282916 Z" id="Oval-12" stroke="#6b808b" stroke-width="2" stroke-linejoin="round" sketch:type="MSShapeGroup"></path>
                <path d="M31.4857677,13.7931034 C32.1957662,14.4187945 32.6436782,15.3349264 32.6436782,16.3556738 C32.6436782,18.2414176 31.1149808,19.7701149 29.229237,19.7701149 C28.2084897,19.7701149 27.2923578,19.322203 26.6666667,18.6122044 L31.4857677,13.7931034 Z" id="Oval-13" stroke="#6b808b" stroke-width="2" sketch:type="MSShapeGroup"></path>
                <circle id="Oval-12" stroke="#6b808b" stroke-width="2" sketch:type="MSShapeGroup" cx="6.43678161" cy="22.0689655" r="2.75862069"></circle>
            </g>
            <g id="mouse" sketch:type="MSLayerGroup" transform="translate(80.000000, 339.000000)">
                <rect id="cont" opacity="0" fill="#181818" sketch:type="MSShapeGroup" x="0" y="0" width="40" height="40"></rect>
                <rect id="Rectangle-52" stroke="#6b808b" stroke-width="2" sketch:type="MSShapeGroup" x="8.93617021" y="1.70212766" width="21.7021277" height="36.1702128" rx="63"></rect>
                <rect id="Rectangle-106" stroke="#6b808b" stroke-width="2" stroke-linecap="round" stroke-linejoin="round" sketch:type="MSShapeGroup" x="17.8723404" y="7.23404255" width="3.82978723" height="6.38297872" rx="2"></rect>
                <path d="M20,7.23404255 L20,5.53191489" id="Path-153" stroke="#6b808b" stroke-width="2" stroke-linecap="round" stroke-linejoin="round" sketch:type="MSShapeGroup"></path>
                <path d="M20,17.4468085 L20,13.6170213" id="Path-153-Copy" stroke="#6b808b" stroke-width="2" stroke-linecap="round" stroke-linejoin="round" sketch:type="MSShapeGroup"></path>
                <path d="M8.93617021,18.2978723 L30.6382979,18.2978723" id="Path-171" stroke="#6b808b" stroke-width="2" sketch:type="MSShapeGroup"></path>
            </g>
            <g id="user" sketch:type="MSLayerGroup" transform="translate(40.000000, 199.000000)">
                <rect id="cont" opacity="0" fill="#181818" sketch:type="MSShapeGroup" x="0" y="0" width="40" height="40"></rect>
                <path d="M26.3636364,10 L26.3636364,12.7272727 C26.3636364,16.241812 23.5145393,19.0909091 20,19.0909091 C16.4854607,19.0909091 13.6363636,16.241812 13.6363636,12.7272727 L13.6363636,9.09090909" id="Oval-26" stroke="#6b808b" stroke-width="2" stroke-linecap="round" stroke-linejoin="round" sketch:type="MSShapeGroup"></path>
                <path d="M25.3335851,22.8482331 C31.0564906,23.6712833 35.4545455,28.5947586 35.4545455,34.5454545 L35.4545455,35.2763136 C35.4545455,36.3797162 34.5572273,37.2727273 33.4503294,37.2727273 L6.54967065,37.2727273 C5.43716951,37.2727273 4.54545455,36.3789024 4.54545455,35.2763136 L4.54545455,34.5454545 C4.54545455,28.5947586 8.94350943,23.6712833 14.6664149,22.8482331 L20,28.1818182 L25.3335851,22.8482331 Z" id="Oval-28" stroke="#6b808b" stroke-width="2" stroke-linecap="round" stroke-linejoin="round" sketch:type="MSShapeGroup"></path>
                <path d="M13.6363636,10 L13.6363636,8.53828192 C13.6363636,6.33310425 15.4332391,4.54545455 17.2727273,4.54545455 L17.2727273,4.54545455 L17.2727273,1.81818182 L22.3497686,2.83359007 C24.5665665,3.27694967 26.3636364,5.47699094 26.3636364,7.72055551 L26.3636364,10" id="Path-187" stroke="#6b808b" stroke-width="2" stroke-linecap="round" stroke-linejoin="round" sketch:type="MSShapeGroup" transform="translate(20.000000, 5.909091) scale(-1, 1) translate(-20.000000, -5.909091) "></path>
                <path d="M26.3636364,12.1818182 C26.3636364,9.97267918 24.7355809,8.18181818 22.7272727,8.18181818 L17.2727273,8.18181818" id="Oval-43" stroke="#6b808b" stroke-width="2" stroke-linecap="round" stroke-linejoin="round" sketch:type="MSShapeGroup"></path>
                <path d="M14.3606032,6.72358431 C15.2716231,9.1520878 16.7242156,10.7235843 18.3606032,10.7235843" id="Oval-43" stroke="#6b808b" stroke-width="2" stroke-linecap="round" stroke-linejoin="round" sketch:type="MSShapeGroup"></path>
            </g>
            <g id="graph" sketch:type="MSLayerGroup" transform="translate(1240.000000, 239.000000)">
                <rect id="cont" opacity="0" fill="#181818" sketch:type="MSShapeGroup" x="0" y="0" width="40" height="40"></rect>
                <rect id="Rectangle-130" stroke="#6b808b" stroke-width="2" stroke-linecap="round" stroke-linejoin="round" sketch:type="MSShapeGroup" x="2.72727273" y="7.27272727" width="34.5454545" height="25.4545455" rx="2"></rect>
                <path d="M2.72727273,12 L37.2727273,12" id="Path-220" stroke="#6b808b" stroke-width="2" stroke-linecap="round" stroke-linejoin="round" sketch:type="MSShapeGroup"></path>
                <path d="M6.36363636,27.2727273 L15.4545455,18.1818182 L22.7272727,25.4545455 L33.6363636,14.5454545" id="Path-221" stroke="#6b808b" stroke-width="2" stroke-linecap="round" stroke-linejoin="round" sketch:type="MSShapeGroup"></path>
            </g>
            <g id="note" sketch:type="MSLayerGroup" transform="translate(1360.000000, 259.000000)">
                <rect id="cont" opacity="0" fill="#181818" sketch:type="MSShapeGroup" x="0" y="0" width="40" height="40"></rect>
                <path d="M32.7272727,17.2727273 L32.7272727,35.2819321 C32.7272727,36.3814179 31.8362573,37.2727273 30.7298972,37.2727273 L9.27010276,37.2727273 C8.16698274,37.2727273 7.27272727,36.3840746 7.27272727,35.2660997 L7.27272727,4.73390035 C7.27272727,3.62567051 8.1637427,2.72727273 9.27010273,2.72727273 L30.7298969,2.72727273 C31.8330169,2.72727273 32.7272724,3.61905185 32.7272724,4.73382939 L32.7272727,10" id="Rectangle-34-Copy" stroke="#6b808b" stroke-width="2" stroke-linejoin="round" sketch:type="MSShapeGroup"></path>
                <path d="M30.1818182,2.72727273 L30.1818182,37.2846869" id="Path-39" stroke="#6b808b" stroke-width="2" sketch:type="MSShapeGroup"></path>
                <path d="M29.0909091,10 L38.1818182,10 L35.4545455,13.6363636 L38.1818182,17.2727273 L29.0909091,17.2727273 L29.0909091,10 Z" id="Rectangle-103" stroke="#6b808b" stroke-width="2" stroke-linecap="round" stroke-linejoin="round" sketch:type="MSShapeGroup"></path>
            </g>
            <g id="watch" sketch:type="MSLayerGroup" transform="translate(60.000000, 439.000000)">
                <rect id="cont" opacity="0" fill="#181818" sketch:type="MSShapeGroup" x="0" y="0" width="40" height="40"></rect>
                <circle id="Oval-18" stroke="#6b808b" stroke-width="2" sketch:type="MSShapeGroup" cx="20" cy="20" r="18.1818182"></circle>
                <circle id="Oval-18-Copy-2" stroke="#6b808b" stroke-width="2" sketch:type="MSShapeGroup" cx="20" cy="20" r="14.5454545"></circle>
                <path d="M20,9.09090909 L20,17.2727273" id="Path" stroke="#6b808b" stroke-width="2" stroke-linecap="round" stroke-linejoin="round" sketch:type="MSShapeGroup"></path>
                <path d="M21.8181818,21.8181818 L27.2727273,27.2727273" id="Path" stroke="#6b808b" stroke-width="2" stroke-linecap="round" stroke-linejoin="round" sketch:type="MSShapeGroup"></path>
                <circle id="Oval-25" stroke="#6b808b" stroke-width="2" sketch:type="MSShapeGroup" cx="20" cy="20" r="1.81818182"></circle>
            </g>
            <g id="zoom" sketch:type="MSLayerGroup" transform="translate(160.000000, 419.000000)">
                <rect id="cont" opacity="0" fill="#181818" sketch:type="MSShapeGroup" x="0" y="0" width="40" height="40"></rect>
                <circle id="Oval-24" stroke="#6b808b" stroke-width="2" sketch:type="MSShapeGroup" cx="16.3636364" cy="16.3636364" r="12.7272727"></circle>
                <path d="M16.3636364,7.27272727 C11.3428659,7.27272727 7.27272727,11.3428659 7.27272727,16.3636364" id="Oval-24-Copy-2" stroke="#6b808b" stroke-width="2" stroke-linecap="round" stroke-linejoin="round" sketch:type="MSShapeGroup"></path>
                <path d="M24.5454545,27.2727273 L33.1339082,35.861181 C33.9134837,36.6407565 35.1780007,36.6401811 35.9570225,35.8611593 L35.8611593,35.9570225 C36.6407468,35.177435 36.6395961,33.9123234 35.861181,33.1339082 L27.2727273,24.5454545" id="Path-126" stroke="#6b808b" stroke-width="2" stroke-linecap="round" stroke-linejoin="round" sketch:type="MSShapeGroup"></path>
            </g>
            <g id="headphones" sketch:type="MSLayerGroup" transform="translate(1260.000000, 459.000000)">
                <rect id="Rectangle-134-Copy-2" opacity="0" fill="#181818" sketch:type="MSShapeGroup" x="0" y="0" width="40" height="40"></rect>
                <path d="M35.4545455,18.1818182 C35.4545455,9.64650841 28.5353098,2.72727273 20,2.72727273 C11.4646902,2.72727273 4.54545455,9.64650841 4.54545455,18.1818182" id="Oval-20" stroke="#6b808b" stroke-width="2" sketch:type="MSShapeGroup"></path>
                <rect id="Rectangle-57-Copy-3" stroke="#6b808b" stroke-width="2" sketch:type="MSShapeGroup" transform="translate(30.181818, 29.090909) scale(-1, 1) translate(-30.181818, -29.090909) " x="28.1818182" y="20.9090909" width="4" height="16.3636364" rx="2"></rect>
                <path d="M5.63636364,25.4545455 L5.63636364,18.1818182" id="Path-43" stroke="#6b808b" stroke-width="2" sketch:type="MSShapeGroup"></path>
                <path d="M36.5454545,25.4545455 L36.5454545,18.1818182" id="Path-43-Copy" stroke="#6b808b" stroke-width="2" sketch:type="MSShapeGroup"></path>
                <path d="M32.7272727,33.6363636 C35.237658,33.6363636 37.2727273,31.6012943 37.2727273,29.0909091 C37.2727273,26.5805239 35.237658,24.5454545 32.7272727,24.5454545" id="Oval-20" stroke="#6b808b" stroke-width="2" sketch:type="MSShapeGroup"></path>
                <rect id="Rectangle-57-Copy-4" stroke="#6b808b" stroke-width="2" sketch:type="MSShapeGroup" x="8.18181818" y="20.9090909" width="4" height="16.3636364" rx="2"></rect>
                <path d="M2.72727273,33.6363636 C5.23765795,33.6363636 7.27272727,31.6012943 7.27272727,29.0909091 C7.27272727,26.5805239 5.23765795,24.5454545 2.72727273,24.5454545" id="Oval-20-Copy" stroke="#6b808b" stroke-width="2" sketch:type="MSShapeGroup" transform="translate(5.000000, 29.090909) scale(-1, 1) translate(-5.000000, -29.090909) "></path>
            </g>
            <g id="phone" sketch:type="MSLayerGroup" transform="translate(1300.000000, 359.000000)">
                <rect id="Rectangle-134-Copy-2" opacity="0" fill="#181818" sketch:type="MSShapeGroup" x="0" y="0" width="40" height="40"></rect>
                <rect id="Rectangle-34" stroke="#6b808b" stroke-width="2" sketch:type="MSShapeGroup" x="9.09090909" y="1.81818182" width="21.8181818" height="36.3636364" rx="3"></rect>
                <circle id="Oval-7" stroke="#6b808b" stroke-width="2" sketch:type="MSShapeGroup" cx="20.1818182" cy="32.9090909" r="2"></circle>
                <path d="M18.1818182,6.54545455 L22.1818182,6.54545455" id="Path-19" stroke="#6b808b" stroke-width="2" stroke-linecap="round" stroke-linejoin="round" sketch:type="MSShapeGroup"></path>
            </g>
        </g>
    </g>
</svg>